<?xml version="1.0" encoding="UTF-8"?>
<svg version="1.1" xmlns="http://www.w3.org/2000/svg" width="736" height="490">
<path d="M0 0 C242.88 0 485.76 0 736 0 C736 161.7 736 323.4 736 490 C493.12 490 250.24 490 0 490 C0 328.3 0 166.6 0 0 Z " fill="#05090A" transform="translate(0,0)"/>
<path d="M0 0 C1.95555561 6.54179912 2.3037006 12.50594952 2.25 19.3125 C2.26160156 20.7655957 2.26160156 20.7655957 2.2734375 22.24804688 C2.25535924 29.02287496 1.42228246 35.38023092 0 42 C1.3921875 42.1546875 1.3921875 42.1546875 2.8125 42.3125 C9.01286367 43.18739794 15.06990787 45.02330262 21 47 C21.24621094 46.4328125 21.49242187 45.865625 21.74609375 45.28125 C32.96502092 24.87049153 63.37071484 12.69051437 84 5 C84.89976562 4.6184375 85.79953125 4.236875 86.7265625 3.84375 C89 3 89 3 92 3 C92.59871082 22.29138361 92.33782507 40.26986489 87 59 C86.5985376 60.40958984 86.5985376 60.40958984 86.18896484 61.84765625 C83.56608844 70.78418184 80.69172943 79.18433765 76 87.25 C73.33057385 91.84999327 72.29120598 94.75979877 73.4375 100 C73.623125 100.66 73.80875 101.32 74 102 C75.11143439 106.43796527 75.11531401 110.76643266 75.0625 115.3125 C75.05798828 116.05306641 75.05347656 116.79363281 75.04882812 117.55664062 C75.03712175 119.37112899 75.01918898 121.18557534 75 123 C76.2065625 122.7834375 77.413125 122.566875 78.65625 122.34375 C80.27077186 122.06214735 81.88535873 121.78091721 83.5 121.5 C84.29148437 121.35691406 85.08296875 121.21382813 85.8984375 121.06640625 C91.00907543 120.18670628 95.81212305 119.76631185 101 120 C102 121 102 121 102.0625 124.5625 C102.041875 125.696875 102.02125 126.83125 102 128 C97.89618207 128.50289045 93.79189194 129.00181793 89.6875 129.5 C88.52025391 129.64308594 87.35300781 129.78617188 86.15039062 129.93359375 C85.03212891 130.06894531 83.91386719 130.20429688 82.76171875 130.34375 C81.73006592 130.46943359 80.69841309 130.59511719 79.63549805 130.72460938 C77 131 77 131 74 131 C73.87625 132.216875 73.7525 133.43375 73.625 134.6875 C73.21108694 138.06479059 72.45426549 140.89756695 71 144 C72.216875 144.37125 73.43375 144.7425 74.6875 145.125 C81.02384468 147.22024496 86.98624042 150.12789535 93 153 C92.25 155.9375 92.25 155.9375 91 159 C88.52240214 160.12497621 87.31468258 160.09792734 84.70996094 159.28735352 C83.4845459 158.71392212 83.4845459 158.71392212 82.234375 158.12890625 C81.34492188 157.71962891 80.45546875 157.31035156 79.5390625 156.88867188 C78.61867188 156.45103516 77.69828125 156.01339844 76.75 155.5625 C75.81414062 155.12873047 74.87828125 154.69496094 73.9140625 154.24804688 C71.6043209 153.17566685 69.30016329 152.09273597 67 151 C66.72414063 151.73605469 66.44828125 152.47210938 66.1640625 153.23046875 C65.08655304 155.79407347 63.87716067 157.9801979 62.375 160.3125 C61.70597656 161.35857422 61.70597656 161.35857422 61.0234375 162.42578125 C60.68570313 162.94527344 60.34796875 163.46476563 60 164 C67.52652722 170.52013524 75.03418699 177.01510346 83 183 C81.79618552 185.49361571 80.54571278 187.68143083 79 190 C78.34 190 77.68 190 77 190 C77 189.34 77 188.68 77 188 C76.47148437 187.77957031 75.94296875 187.55914062 75.3984375 187.33203125 C72.13237155 185.5181412 69.43365394 183.12403965 66.625 180.6875 C65.51320275 179.73286101 64.40122446 178.77843283 63.2890625 177.82421875 C62.74797852 177.35806152 62.20689453 176.8919043 61.64941406 176.41162109 C59.12134197 174.24801647 56.56130802 172.12410589 54 170 C50.75193504 171.52583517 47.85721954 173.38395547 44.875 175.375 C36.56861721 180.62228244 29.16571614 183.17780371 19.5 184.6875 C18.63987305 184.8230127 17.77974609 184.95852539 16.89355469 185.09814453 C12.5342187 185.71848047 8.42046007 186.05975036 4.01953125 185.80859375 C-2.63956845 185.36406548 -2.63956845 185.36406548 -9 187 C-13.0862444 191.14304925 -15.24969281 196.61273611 -17.23242188 202.0012207 C-18.02995365 204.07799954 -18.97714771 206.02581776 -20 208 C-20.66 208 -21.32 208 -22 208 C-24.97 200.41 -27.94 192.82 -31 185 C-33.949375 184.608125 -36.89875 184.21625 -39.9375 183.8125 C-49.61256675 182.44167204 -58.72807151 180.03859833 -68 177 C-68.27585937 177.72574219 -68.55171875 178.45148438 -68.8359375 179.19921875 C-69.94365564 181.8644332 -71.20231375 184.30407951 -72.625 186.8125 C-73.07101562 187.60269531 -73.51703125 188.39289063 -73.9765625 189.20703125 C-74.31429687 189.79871094 -74.65203125 190.39039063 -75 191 C-75.66 191 -76.32 191 -77 191 C-77.33209473 190.15405273 -77.33209473 190.15405273 -77.67089844 189.29101562 C-78.69348948 186.69250644 -79.7217069 184.09625775 -80.75 181.5 C-81.09804688 180.613125 -81.44609375 179.72625 -81.8046875 178.8125 C-85.98217258 167.97588343 -85.98217258 167.97588343 -92.6875 158.625 C-95.93055556 155.13888889 -95.93055556 155.13888889 -97 153 C-99.82761655 154.34800393 -102.38686294 155.86557672 -104.96875 157.63671875 C-106.07283203 158.37825195 -106.07283203 158.37825195 -107.19921875 159.13476562 C-108.73852779 160.17360322 -110.27238481 161.22056354 -111.80078125 162.27539062 C-112.53683594 162.76587891 -113.27289063 163.25636719 -114.03125 163.76171875 C-114.69705078 164.21506592 -115.36285156 164.66841309 -116.04882812 165.13549805 C-118 166 -118 166 -120.16992188 165.80004883 C-122 165 -122 165 -123.25 162.4375 C-123.4975 161.633125 -123.745 160.82875 -124 160 C-116.84782308 154.6739108 -109.56796871 149.71769478 -102 145 C-102.66 140.38 -103.32 135.76 -104 131 C-109.94 131 -115.88 131 -122 131 C-122 128.69 -122 126.38 -122 124 C-116.06 124 -110.12 124 -104 124 C-104.0309375 121.710625 -104.0309375 121.710625 -104.0625 119.375 C-104.06804432 115.47180153 -103.80702729 111.83337965 -103 108 C-104.27230469 107.63261719 -104.27230469 107.63261719 -105.5703125 107.2578125 C-109.32051876 105.88245212 -112.53081111 104.01618881 -115.875 101.875 C-116.46796875 101.50246094 -117.0609375 101.12992187 -117.671875 100.74609375 C-119.1181343 99.83635 -120.55958046 98.91896202 -122 98 C-121.125 93.25 -121.125 93.25 -120 91 C-114.9738891 91.53676912 -111.37760591 93.94418501 -107.1875 96.5625 C-106.14819336 97.19961914 -106.14819336 97.19961914 -105.08789062 97.84960938 C-103.38783049 98.89309456 -101.69334524 99.94565296 -100 101 C-99.85884766 99.99259766 -99.85884766 99.99259766 -99.71484375 98.96484375 C-95.7642774 82.57970791 -83.19764471 67.99299144 -72 56 C-70.78624946 54.60887464 -69.57758747 53.21328675 -68.375 51.8125 C-62.70790065 45.3432085 -56.66633507 39.77817526 -49.94140625 34.40625 C-47.64500575 32.5276541 -45.42570173 30.61186104 -43.2109375 28.640625 C-38.9964792 24.93639288 -34.58779719 21.56370364 -30.0625 18.25 C-29.2478125 17.6523584 -28.433125 17.0547168 -27.59375 16.43896484 C-21.98607672 12.36213436 -16.30038229 8.42262186 -10.5 4.625 C-9.78851807 4.15481445 -9.07703613 3.68462891 -8.34399414 3.20019531 C-3.36692501 0 -3.36692501 0 0 0 Z " fill="#FBFCFC" transform="translate(379,141)"/>
<path d="M0 0 C7.30156185 5.40406656 11.77574487 10.68067436 13.2578125 19.6953125 C13.81596321 27.12940494 10.99559337 33.30042844 6.87890625 39.390625 C-0.02984175 45.5389762 -5.90708896 48.08574078 -15.23046875 47.69921875 C-23.82274689 46.781935 -28.62944948 42.97047528 -34.12109375 36.390625 C-38.03042011 30.71579642 -38.77289716 23.703622 -37.75390625 16.9609375 C-35.73678112 9.76403426 -30.98758402 4.2247222 -24.93359375 -0.046875 C-17.567504 -4.13914708 -7.3033486 -4.33016911 0 0 Z " fill="#080B0C" transform="translate(372.12109375,238.609375)"/>
<path d="M0 0 C4.66611756 2.99335843 6.91962777 5.92126894 9 11 C9.33979227 13.81461265 9.52473043 16.31841298 9.5 19.125 C9.49500488 19.86911133 9.49000977 20.61322266 9.48486328 21.37988281 C9.24991465 28.9079609 7.50276971 36.03476192 2.40234375 41.80859375 C-1.6188317 45.29624715 -4.65144004 46.36403902 -9.96875 46.27734375 C-13.25767508 45.82827898 -14.78904872 44.40046138 -17 42 C-21.42340986 34.5749906 -21.98644989 26.47967502 -21 18 C-17.62569292 7.80477219 -11.83357973 -2.06618059 0 0 Z " fill="#080B0C" transform="translate(307,233)"/>
<path d="M0 0 C0.05384521 2.29141286 0.09272087 4.58318188 0.125 6.875 C0.14820313 8.15117187 0.17140625 9.42734375 0.1953125 10.7421875 C0 14 0 14 -2 16 C-5.0390625 16.4140625 -5.0390625 16.4140625 -8.625 16.625 C-9.81351562 16.69976562 -11.00203125 16.77453125 -12.2265625 16.8515625 C-13.14179688 16.90054688 -14.05703125 16.94953125 -15 17 C-13.53092999 19.93814003 -11.40552194 20.3286226 -8.4375 21.625 C-7.42558594 22.07101563 -6.41367187 22.51703125 -5.37109375 22.9765625 C-4.58863281 23.31429687 -3.80617188 23.65203125 -3 24 C-3.33 24.66 -3.66 25.32 -4 26 C-6.64 26 -9.28 26 -12 26 C-10.7934375 27.0828125 -10.7934375 27.0828125 -9.5625 28.1875 C-6.84559643 31.16946733 -6.23725173 32.08534644 -6 36 C-7.14453125 39.0078125 -7.14453125 39.0078125 -8.8125 42.125 C-9.62654297 43.67574219 -9.62654297 43.67574219 -10.45703125 45.2578125 C-12 48 -12 48 -14 51 C-14.66 51 -15.32 51 -16 51 C-17.375 49.34765625 -17.375 49.34765625 -19 47.0625 C-24.89827368 39.27971564 -32.05673946 33.24755095 -40.3828125 28.19140625 C-40.91648437 27.79824219 -41.45015625 27.40507812 -42 27 C-42 25 -42 25 -40.53125 23.51953125 C-39.8609375 22.95621094 -39.190625 22.39289063 -38.5 21.8125 C-35.27529807 19.09210828 -35.27529807 19.09210828 -32.14453125 16.265625 C-23.68144388 8.39802139 -11.98276567 -0.32829495 0 0 Z " fill="#090C0D" transform="translate(458,170)"/>
<path d="M0 0 C6.03227609 4.34323879 11.65300371 9.06629131 17.25048828 13.94824219 C20.41712639 16.77136158 20.41712639 16.77136158 24 19 C22.79618552 21.49361571 21.54571278 23.68143083 20 26 C19.34 26 18.68 26 18 26 C18 25.34 18 24.68 18 24 C17.47277344 23.77957031 16.94554687 23.55914062 16.40234375 23.33203125 C13.12115217 21.51270389 10.39315232 19.12347851 7.5625 16.6875 C7.00240234 16.21376953 6.44230469 15.74003906 5.86523438 15.25195312 C2.41492316 12.3089222 -0.83502791 9.24779379 -4 6 C-2.68 4.02 -1.36 2.04 0 0 Z " fill="#EFEFF0" transform="translate(438,305)"/>
<path d="M0 0 C0.99 0.33 1.98 0.66 3 1 C2.34 3.31 1.68 5.62 1 8 C0.32453125 8.06058594 -0.3509375 8.12117188 -1.046875 8.18359375 C-1.93890625 8.26738281 -2.8309375 8.35117187 -3.75 8.4375 C-4.63171875 8.51871094 -5.5134375 8.59992188 -6.421875 8.68359375 C-8.69350452 8.96238465 -10.79851823 9.38790577 -13 10 C-10.55980714 7.39926814 -7.89139437 5.33249238 -5 3.25 C-3.700625 2.29867188 -3.700625 2.29867188 -2.375 1.328125 C-1.59125 0.88984375 -0.8075 0.4515625 0 0 Z " fill="#141618" transform="translate(280,293)"/>
<path d="M0 0 C1.32 0.66 2.64 1.32 4 2 C3.67 2.66 3.34 3.32 3 4 C1.865625 4.28875 0.73125 4.5775 -0.4375 4.875 C-4.01067587 5.57803504 -4.01067587 5.57803504 -5.125 7.8125 C-5.41375 8.534375 -5.7025 9.25625 -6 10 C-7.62746694 11.70496537 -9.28891311 13.37897032 -11 15 C-11.33 14.34 -11.66 13.68 -12 13 C-8.83410746 7.59160025 -4.82485166 3.95825209 0 0 Z " fill="#131516" transform="translate(348,238)"/>
<path d="M0 0 C1.98 0.66 3.96 1.32 6 2 C5.25 4.9375 5.25 4.9375 4 8 C2.125 9.0625 2.125 9.0625 0 9 C-2.25 7.5625 -2.25 7.5625 -4 6 C-2.84826645 3.53199953 -1.95216435 1.95216435 0 0 Z " fill="#EEEFF0" transform="translate(466,292)"/>
<path d="M0 0 C3.94139078 1.66751148 6.7892812 4.22710649 10 7 C8 9 8 9 5.375 9.125 C4.59125 9.08375 3.8075 9.0425 3 9 C3.33 8.01 3.66 7.02 4 6 C2.68 6 1.36 6 0 6 C0 5.34 0 4.68 0 4 C-1.65 4.33 -3.3 4.66 -5 5 C-3.35 3.35 -1.7 1.7 0 0 Z " fill="#161918" transform="translate(431,310)"/>
<path d="M0 0 C-0.33 1.32 -0.66 2.64 -1 4 C-3.31 4 -5.62 4 -8 4 C-8.33 2.68 -8.66 1.36 -9 0 C-5.67465243 -1.10844919 -3.37817425 -0.84454356 0 0 Z " fill="#F8F9F8" transform="translate(448,313)"/>
<path d="M0 0 C1.32 1.65 2.64 3.3 4 5 C3.67 5.66 3.34 6.32 3 7 C2.01 7 1.02 7 0 7 C-0.33 7.66 -0.66 8.32 -1 9 C-1.99 7.68 -2.98 6.36 -4 5 C-2.68 3.35 -1.36 1.7 0 0 Z " fill="#141717" transform="translate(442,299)"/>
<path d="M0 0 C0.33 0.99 0.66 1.98 1 3 C-3.455 5.97 -3.455 5.97 -8 9 C-8.33 8.01 -8.66 7.02 -9 6 C-3.375 1.125 -3.375 1.125 0 0 Z " fill="#141517" transform="translate(270,288)"/>
<path d="M0 0 C1.65 0 3.3 0 5 0 C5 4.62 5 9.24 5 14 C4.67 14 4.34 14 4 14 C4 11.03 4 8.06 4 5 C3.34 5 2.68 5 2 5 C2 4.01 2 3.02 2 2 C1.34 1.34 0.68 0.68 0 0 Z " fill="#242626" transform="translate(453,170)"/>
<path d="M0 0 C0 0.33 0 0.66 0 1 C-0.94875 1.103125 -1.8975 1.20625 -2.875 1.3125 C-6.29107501 1.68539295 -6.29107501 1.68539295 -8 5 C-10.625 5.1875 -10.625 5.1875 -13 5 C-8.7797731 -0.27528362 -6.38501231 -0.54110274 0 0 Z " fill="#1F2120" transform="translate(307,233)"/>
<path d="M0 0 C3 1 3 1 5 2 C4.67 3.32 4.34 4.64 4 6 C4 5.01 4 4.02 4 3 C0.535 4.485 0.535 4.485 -3 6 C-3.33 5.34 -3.66 4.68 -4 4 C-3.34 4 -2.68 4 -2 4 C-2 3.34 -2 2.68 -2 2 C-1.34 2 -0.68 2 0 2 C0 1.34 0 0.68 0 0 Z " fill="#191D1E" transform="translate(375,138)"/>
<path d="M0 0 C3.96 0 7.92 0 12 0 C12 0.33 12 0.66 12 1 C10.95199219 1.05607422 10.95199219 1.05607422 9.8828125 1.11328125 C8.51769531 1.21189453 8.51769531 1.21189453 7.125 1.3125 C5.76761719 1.39951172 5.76761719 1.39951172 4.3828125 1.48828125 C1.63778399 1.7882039 1.63778399 1.7882039 0 5 C-0.66 5 -1.32 5 -2 5 C-1.34 3.35 -0.68 1.7 0 0 Z " fill="#1E1F21" transform="translate(370,327)"/>
<path d="M0 0 C1.13643966 3.40931897 0.86747764 4.00335456 -0.4375 7.1875 C-0.86869141 8.26064453 -0.86869141 8.26064453 -1.30859375 9.35546875 C-1.53675781 9.89816406 -1.76492188 10.44085938 -2 11 C-2.33 11 -2.66 11 -3 11 C-3.32613618 6.32538149 -2.70582788 3.83325617 0 0 Z " fill="#1E1F21" transform="translate(454,229)"/>
<path d="M0 0 C0.66 0 1.32 0 2 0 C1.71872579 1.48117801 1.42466268 2.95993249 1.125 4.4375 C0.96257812 5.26121094 0.80015625 6.08492187 0.6328125 6.93359375 C0.31957031 7.95646484 0.31957031 7.95646484 0 9 C-0.99 9.495 -0.99 9.495 -2 10 C-1.85950482 8.52031676 -1.71245174 7.04125484 -1.5625 5.5625 C-1.48128906 4.73878906 -1.40007812 3.91507813 -1.31640625 3.06640625 C-1 1 -1 1 0 0 Z " fill="#212224" transform="translate(469,186)"/>
<path d="M0 0 C0 0.99 0 1.98 0 3 C0.33 3.99 0.66 4.98 1 6 C-0.65 6.33 -2.3 6.66 -4 7 C-3.43628586 3.73045798 -2.50037734 2.17424117 0 0 Z " fill="#F3F5F6" transform="translate(466,292)"/>
<path d="M0 0 C2.31 0 4.62 0 7 0 C6.34 0.66 5.68 1.32 5 2 C4.01 3.485 4.01 3.485 3 5 C1.68 4.34 0.36 3.68 -1 3 C-0.67 2.01 -0.34 1.02 0 0 Z " fill="#020403" transform="translate(300,234)"/>
<path d="M0 0 C0 1.66666667 0 3.33333333 0 5 C-0.61875 5.28875 -1.2375 5.5775 -1.875 5.875 C-4.13325765 6.93720042 -4.13325765 6.93720042 -6 9 C-6 6 -6 6 -4.6875 4.39453125 C-4.130625 3.87246094 -3.57375 3.35039062 -3 2.8125 C-2.443125 2.28269531 -1.88625 1.75289062 -1.3125 1.20703125 C-0.6628125 0.60955078 -0.6628125 0.60955078 0 0 Z " fill="#EAEBEB" transform="translate(329,175)"/>
<path d="M0 0 C1.65 0.33 3.3 0.66 5 1 C4.34 2.32 3.68 3.64 3 5 C1.68 4.67 0.36 4.34 -1 4 C-0.67 2.68 -0.34 1.36 0 0 Z " fill="#E7E8E9" transform="translate(259,232)"/>
<path d="M0 0 C1.9375 0.8125 1.9375 0.8125 4 2 C4.33 2.99 4.66 3.98 5 5 C3.68 5 2.36 5 1 5 C0.34 3.68 -0.32 2.36 -1 1 C-0.67 0.67 -0.34 0.34 0 0 Z " fill="#1D2122" transform="translate(442,194)"/>
<path d="M0 0 C0.66 0.33 1.32 0.66 2 1 C2 1.66 2 2.32 2 3 C0.02 3.99 -1.96 4.98 -4 6 C-4.33 5.01 -4.66 4.02 -5 3 C-2.625 1.4375 -2.625 1.4375 0 0 Z " fill="#111214" transform="translate(426,161)"/>
</svg>
